<?xml version="1.0" standalone="no"?>
<svg xmlns="http://www.w3.org/2000/svg"
 viewBox="0 0 2600 2400" width="520" height="480">
<!-- Alpha-Omega Infinity Logo - Gradient cyan→purple→pink - Transparent background -->
<defs>
  <linearGradient id="grad" x1="0%" y1="0%" x2="100%" y2="100%">
    <stop offset="0%" stop-color="#00d4ff"/>
    <stop offset="50%" stop-color="#7b2ff7"/>
    <stop offset="100%" stop-color="#ff0080"/>
  </linearGradient>
</defs>

<!-- Main shape with gradient, no background -->
<g transform="translate(0,2800) scale(1,-1)" fill="url(#grad)" stroke="none">
<path d="M725 2064 c-167 -23 -329 -132 -403 -271 -110 -207 -74 -460 89 -622
166 -166 391 -197 619 -84 68 34 102 64 365 324 267 263 294 287 338 298 157
38 272 -132 183 -269 -13 -20 -40 -44 -60 -55 -35 -19 -36 -21 -36 -78 l0 -58
118 3 117 3 3 43 3 42 -52 0 c-49 0 -51 1 -36 18 33 36 67 126 67 178 0 118
-76 227 -181 258 -67 20 -104 20 -170 -1 -50 -15 -77 -40 -344 -303 -311 -307
-345 -332 -476 -366 -79 -20 -171 -14 -252 16 -67 25 -164 109 -204 177 -141
242 -28 543 238 633 52 18 81 21 155 18 81 -3 100 -8 165 -40 60 -30 96 -59
188 -152 l115 -115 110 107 c121 116 189 159 296 187 69 18 162 16 232 -5 63
-18 158 -89 204 -153 209 -284 7 -687 -345 -687 -128 0 -223 42 -332 147 l-65
63 -33 -33 -32 -34 75 -70 c85 -81 134 -113 226 -143 73 -25 202 -30 282 -11
163 38 306 165 369 329 28 71 37 220 19 301 -42 189 -205 354 -388 392 -32 6
-94 9 -142 6 -149 -9 -271 -68 -405 -198 l-71 -68 -74 75 c-90 92 -172 148
-254 173 -64 20 -170 32 -221 25z M663 1780 c-100 -50 -147 -126 -147 -240 -1
-66 3 -82 30 -130 52 -94 157 -149 258 -135 80 10 114 30 207 122 l89 87 45
-44 45 -44 32 32 32 32 -44 45 -44 45 38 39 38 39 -33 30 -34 31 -37 -36 -37
-36 -81 74 c-100 92 -154 119 -236 119 -48 0 -74 -6 -121 -30z m188 -73 c15
-7 62 -45 105 -85 l78 -72 -74 -76 c-90 -91 -118 -107 -187 -107 -82 0 -146
56 -167 146 -15 64 41 164 109 193 37 16 102 17 136 1z M1563 1518 l-42 -43
20 -45 c11 -25 30 -55 41 -67 l21 -23 -51 0 -52 0 0 -45 0 -45 120 0 120 0 0
59 c0 50 -3 61 -19 66 -54 17 -100 79 -110 148 l-6 38 -42 -43z"/>
</g>
</svg>
